<?xml version="1.0" encoding="iso-8859-1"?>
<!-- Generator: Adobe Illustrator 19.0.0, SVG Export Plug-In . SVG Version: 6.00 Build 0)  -->
<svg version="1.1" id="Capa_1" xmlns="http://www.w3.org/2000/svg" xmlns:xlink="http://www.w3.org/1999/xlink" x="0px" y="0px"
	 viewBox="0 0 480 480" style="enable-background:new 0 0 480 480;" xml:space="preserve">
<path style="fill:#406AF2;" d="M8,344c0,17.672,14.328,32,32,32h168h64h168c17.672,0,32-14.328,32-32v-32H8V344z"/>
<path style="fill:#C9F4F3;" d="M311.44,66.456C311.76,68.264,312,70.104,312,72C312,70.096,311.792,68.256,311.44,66.456z"/>
<path style="fill:#4BDDDD;" d="M440,8H40C22.328,8,8,22.328,8,40v272h464V40C472,22.328,457.672,8,440,8z M408,88l-32,32L408,88z
	 M352,272l-96-30.856V256c0,8.84-7.16,16-16,16h-48c-8.84,0-16-7.16-16-16v-40v40c0,8.84,7.16,16,16,16h48c8.84,0,16-7.16,16-16
	v-14.856L128,200l-64,24V96l64,24l56-18V72c0-17.672,14.328-32,32-32h64c13.968,0,25.712,9,30.08,21.472L352,48V272z M376,200l32,32
	L376,200z M376,160h48H376z"/>
<path style="fill:#406AF2;" d="M152,440c-17.672,0-32,14.328-32,32h240c0-17.672-14.328-32-32-32h-24H176H152z"/>
<polygon style="fill:#385ED6;" points="176,440 304,440 272,376 208,376 "/>
<polygon style="fill:#FFC931;" points="64,96 64,224 128,200 128,120 "/>
<path style="fill:#42C2C2;" d="M440,8H240v304h232V40C472,22.328,457.672,8,440,8z"/>
<path style="fill:#FFC931;" d="M311.44,66.456c0.352,1.8,0.56,3.64,0.56,5.544v48c0,17.672-14.328,32-32,32h-8l-24,24l-24-24h-8
	c-17.672,0-32-14.328-32-32v-18l-56,18v80l128,41.144V240v1.144L352,272V48l-41.92,13.472
	C310.648,63.088,311.136,64.736,311.44,66.456z"/>
<polygon style="fill:#E6B52C;" points="352,272 128,200 64,224 64,160 352,160 "/>
<path style="fill:#B139D8;" d="M216,152h8l24,24l24-24h8c17.672,0,32-14.328,32-32V72c0-1.896-0.24-3.736-0.56-5.544
	c-0.336-1.704-0.792-3.368-1.36-4.984l0,0C305.712,49,293.968,40,280,40h-64c-17.672,0-32,14.328-32,32v30v18
	C184,137.672,198.328,152,216,152z M220.552,76.72c6.064-6.296,15.896-6.296,21.96,0L248,82.416l5.488-5.696
	c6.064-6.296,15.896-6.296,21.96,0s6.064,16.496,0,22.792l-5.488,5.696L248,128l-21.96-22.792l-5.488-5.696
	C214.48,93.216,214.48,83.016,220.552,76.72z"/>
<path style="fill:#C9F4F3;" d="M311.44,66.456c-0.304-1.72-0.792-3.368-1.36-4.984l0,0C310.648,63.088,311.112,64.752,311.44,66.456
	z"/>
<path style="fill:#FFC931;" d="M226.04,105.208L248,128l21.96-22.792l5.488-5.696c6.064-6.296,6.064-16.496,0-22.792
	s-15.896-6.296-21.96,0L248,82.416l-5.488-5.696c-6.064-6.296-15.896-6.296-21.96,0s-6.064,16.496,0,22.792L226.04,105.208z"/>
<g>
	<path style="fill:#385ED6;" d="M440,376H240v-64h232v32C472,361.672,457.672,376,440,376z"/>
	<path style="fill:#385ED6;" d="M360,472H248v-32h80C345.672,440,360,454.328,360,472L360,472z"/>
</g>
<g>
	<path style="fill:#2A0E54;" d="M440,0H40C17.944,0,0,17.944,0,40v304c0,22.056,17.944,40,40,40h155.056l-24,48H152
		c-22.056,0-40,17.944-40,40c0,4.424,3.576,8,8,8h240c4.424,0,8-3.576,8-8c0-22.056-17.944-40-40-40h-19.056l-24-48H440
		c22.056,0,40-17.944,40-40V40C480,17.944,462.056,0,440,0z M40,16h400c13.232,0,24,10.768,24,24v264H16V40
		C16,26.768,26.768,16,40,16z M350.632,464H129.368c3.304-9.312,12.2-16,22.632-16h24h128h24
		C338.432,448,347.328,454.688,350.632,464z M291.056,432H188.944l24-48h54.112L291.056,432z M440,368H272h-64H40
		c-13.232,0-24-10.768-24-24v-24h448v24C464,357.232,453.232,368,440,368z"/>
	<path style="fill:#2A0E54;" d="M59.448,230.576C60.8,231.512,62.392,232,64,232c0.944,0,1.896-0.168,2.816-0.504l61.392-23.024
		L168,221.264V256c0,13.232,10.768,24,24,24h48c13.232,0,24-10.768,24-24v-3.88l85.552,27.496c0.8,0.256,1.624,0.384,2.448,0.384
		c1.672,0,3.328-0.52,4.712-1.536C358.784,276.96,360,274.552,360,272V48c0-2.552-1.216-4.96-3.288-6.472
		c-2.064-1.504-4.744-1.928-7.16-1.152L314.28,51.72C307.312,39.976,294.624,32,280,32h-64c-22.056,0-40,17.944-40,40v24.168
		l-47.792,15.36L66.816,88.504c-2.472-0.928-5.216-0.576-7.368,0.912C57.288,90.92,56,93.376,56,96v128
		C56,226.624,57.288,229.08,59.448,230.576z M248,256c0,4.416-3.584,8-8,8h-48c-4.416,0-8-3.584-8-8v-29.6l64,20.568V256z M192,72
		c0-13.232,10.768-24,24-24h64c10.392,0,19.176,6.68,22.512,15.944c0.016,0.056,0,0.112,0.024,0.168
		c0.48,1.368,0.824,2.672,1.072,3.944C303.816,69.344,304,70.648,304,72v48c0,13.232-10.768,24-24,24h-8
		c-2.128,0-4.16,0.84-5.656,2.344L248,164.688l-18.344-18.344C228.16,144.84,226.128,144,224,144h-8c-13.232,0-24-10.768-24-24v-18
		V72z M216,160h4.688l21.656,21.656c1.56,1.56,3.608,2.344,5.656,2.344s4.096-0.784,5.656-2.344L275.312,160H280
		c22.056,0,40-17.944,40-40V72c0-1.728-0.128-3.448-0.376-5.184L344,58.976v202.048l-208-66.848v-68.344l40-12.848V120
		C176,142.056,193.944,160,216,160z M72,107.544l48,18v68.904l-48,18V107.544z"/>
	<rect x="376" y="152" style="fill:#2A0E54;" width="48" height="16"/>
	
		<rect x="369.361" y="96.012" transform="matrix(-0.7071 0.7071 -0.7071 -0.7071 742.7133 -99.6185)" style="fill:#2A0E54;" width="45.256" height="16"/>
	
		<rect x="383.984" y="193.362" transform="matrix(-0.7071 0.7071 -0.7071 -0.7071 821.8856 91.5437)" style="fill:#2A0E54;" width="16" height="45.256"/>
	<path style="fill:#2A0E54;" d="M242.24,133.552c1.512,1.568,3.592,2.448,5.76,2.448s4.248-0.88,5.76-2.448l27.456-28.496
		c9.008-9.344,9.008-24.544,0.008-33.888l-0.008-0.008c-8.824-9.136-24.28-9.264-33.216-0.272
		c-8.944-8.992-24.392-8.872-33.216,0.28c-9,9.344-9,24.544,0,33.88L242.24,133.552z M226.304,82.272
		c1.416-1.464,3.264-2.272,5.224-2.272c1.952,0,3.808,0.808,5.208,2.264l5.496,5.704c3.016,3.144,8.512,3.144,11.528,0l5.488-5.696
		c2.832-2.944,7.624-2.928,10.448,0c3.048,3.168,3.048,8.512-0.008,11.688L248,116.472L226.304,93.96
		C223.256,90.792,223.256,85.44,226.304,82.272z"/>
</g>
<g>
</g>
<g>
</g>
<g>
</g>
<g>
</g>
<g>
</g>
<g>
</g>
<g>
</g>
<g>
</g>
<g>
</g>
<g>
</g>
<g>
</g>
<g>
</g>
<g>
</g>
<g>
</g>
<g>
</g>
</svg>
