<?xml version="1.0" encoding="iso-8859-1"?>
<!-- Generator: Adobe Illustrator 19.0.0, SVG Export Plug-In . SVG Version: 6.00 Build 0)  -->
<svg version="1.1" id="Capa_1" xmlns="http://www.w3.org/2000/svg" xmlns:xlink="http://www.w3.org/1999/xlink" x="0px" y="0px"
	 viewBox="0 0 485.654 485.654" style="enable-background:new 0 0 485.654 485.654;" xml:space="preserve">
<rect x="58.827" y="375.998" style="fill:#385ED6;" width="32" height="40"/>
<polygon style="fill:#B139D8;" points="10.827,375.998 18.827,375.998 58.827,375.998 90.827,375.998 90.827,279.998 
	42.827,279.998 42.827,311.998 42.827,279.998 10.827,279.998 "/>
<path style="fill:#FFC931;" d="M218.827,447.998h40v-88v-64v-88h-32v64v-64l-136,72v96L218.827,447.998z M226.827,287.998v16
	V287.998z"/>
<path style="fill:#385ED6;" d="M274.827,359.998c8.84,0,16-7.16,16-16v-32c0-8.84-7.16-16-16-16h-16v64H274.827z"/>
<polygon style="fill:#406AF2;" points="18.827,375.998 18.827,471.998 58.827,471.998 58.827,415.998 58.827,375.998 "/>
<polygon style="fill:#385ED6;" points="18.827,375.998 18.827,399.998 58.827,399.998 58.827,385.998 58.827,375.998 "/>
<polygon style="fill:#FFC931;" points="450.827,7.998 362.827,39.998 450.827,71.998 450.827,47.998 "/>
<g>
	<circle style="fill:#4BDDDD;" cx="378.827" cy="279.998" r="24"/>
	<circle style="fill:#4BDDDD;" cx="98.827" cy="63.998" r="16"/>
	<polygon style="fill:#4BDDDD;" points="34.827,215.998 98.827,215.998 66.827,159.998 	"/>
</g>
<polygon style="fill:#E6B52C;" points="258.827,447.998 218.827,447.998 90.827,375.998 90.827,327.998 258.827,327.998 "/>
<g>
	<path style="fill:#2A0E54;" d="M2.827,375.998c0,4.416,3.576,8,8,8v88c0,4.416,3.576,8,8,8h40c4.424,0,8-3.584,8-8v-48h24
		c4.424,0,8-3.584,8-8v-26.32l116.08,65.296c1.192,0.672,2.544,1.024,3.92,1.024h40c4.424,0,8-3.584,8-8v-80h8
		c13.232,0,24-10.768,24-24v-32c0-13.232-10.768-24-24-24h-8v-80c0-4.416-3.576-8-8-8h-32c-1.304,0-2.592,0.32-3.744,0.928
		l-134.24,71.072H10.827c-4.424,0-8,3.584-8,8V375.998z M50.827,463.998h-24v-80h24V463.998z M66.827,407.998v-24h16v24H66.827z
		 M274.827,303.998c4.416,0,8,3.592,8,8v32c0,4.408-3.584,8-8,8h-8v-48H274.827z M250.827,295.998v64v80h-29.904l-122.096-68.68
		v-86.504l120-63.528v50.712h16v-56h16V295.998z M18.827,287.998h16v24h16v-24h32v80h-24h-40V287.998z"/>
	<rect x="218.827" y="287.998" style="fill:#2A0E54;" width="16" height="16"/>
	<path style="fill:#2A0E54;" d="M458.827,71.998v-24v-40c0-2.608-1.272-5.056-3.416-6.552c-2.144-1.504-4.864-1.848-7.32-0.968
		l-88,32c-3.16,1.152-5.264,4.16-5.264,7.52s2.104,6.368,5.264,7.52l82.736,30.088v74.392h-32v16h72v-16h-24V71.998z
		 M386.235,39.998l56.592-20.576v28.576v12.576L386.235,39.998z"/>
	<rect x="378.827" y="151.998" style="fill:#2A0E54;" width="16" height="16"/>
	<polygon style="fill:#2A0E54;" points="469.171,434.342 454.827,448.686 440.483,434.342 429.171,445.654 443.515,459.998 
		429.171,474.342 440.483,485.654 454.827,471.31 469.171,485.654 480.483,474.342 466.139,459.998 480.483,445.654 	"/>
	<path style="fill:#2A0E54;" d="M378.827,311.998c17.648,0,32-14.352,32-32s-14.352-32-32-32s-32,14.352-32,32
		S361.179,311.998,378.827,311.998z M378.827,263.998c8.824,0,16,7.176,16,16s-7.176,16-16,16s-16-7.176-16-16
		S370.003,263.998,378.827,263.998z"/>
	<path style="fill:#2A0E54;" d="M74.827,63.998c0,13.232,10.768,24,24,24s24-10.768,24-24s-10.768-24-24-24
		S74.827,50.766,74.827,63.998z M98.827,55.998c4.416,0,8,3.592,8,8s-3.584,8-8,8s-8-3.592-8-8S94.411,55.998,98.827,55.998z"/>
	<path style="fill:#2A0E54;" d="M34.827,223.998h64c2.848,0,5.488-1.52,6.92-3.984c1.432-2.464,1.44-5.504,0.024-7.984l-32-56
		c-2.84-4.984-11.048-4.984-13.888,0l-32,56c-1.416,2.48-1.408,5.52,0.024,7.984C29.339,222.478,31.979,223.998,34.827,223.998z
		 M66.827,176.126l18.208,31.872H48.619L66.827,176.126z"/>
	<polygon style="fill:#2A0E54;" points="184.483,125.654 202.827,107.31 221.171,125.654 232.483,114.342 214.139,95.998 
		232.483,77.654 221.171,66.342 202.827,84.686 184.483,66.342 173.171,77.654 191.515,95.998 173.171,114.342 	"/>
	<path style="fill:#2A0E54;" d="M354.531,214.806c5.064,1.584,10.096,3.208,15.112,4.864l5.032-15.184
		c-5.096-1.688-10.216-3.336-15.36-4.944L354.531,214.806z"/>
	<path style="fill:#2A0E54;" d="M459.939,330.366c-1.88,4.208-4.304,8.384-7.2,12.416l12.984,9.344
		c3.528-4.904,6.496-10.024,8.832-15.216L459.939,330.366z"/>
	<path style="fill:#2A0E54;" d="M46.427,92.606c-3.672-3.464-6.632-7.032-8.808-10.616l-13.688,8.296
		c2.92,4.816,6.8,9.512,11.52,13.968L46.427,92.606z"/>
	<path style="fill:#2A0E54;" d="M324.811,77.03c4.28,3.144,8.512,6.32,12.696,9.504l9.704-12.72
		c-4.256-3.248-8.568-6.488-12.928-9.688L324.811,77.03z"/>
	<path style="fill:#2A0E54;" d="M347.179,389.062l-1.096,15.96l4.296,0.296c2.216,0.152,4.48,0.224,6.768,0.224
		c1.944,0,3.904-0.056,5.88-0.16l-0.84-15.976c-3.656,0.2-7.256,0.192-10.728-0.048L347.179,389.062z"/>
	<path style="fill:#2A0E54;" d="M480.899,301.974l-15.968,1.08c0.096,1.32,0.144,2.632,0.144,3.936c0,3.336-0.304,6.704-0.912,9.992
		l15.736,2.904c0.784-4.248,1.176-8.584,1.176-12.896C481.067,305.326,481.003,303.654,480.899,301.974z"/>
	<path style="fill:#2A0E54;" d="M422.731,129.014c-3.688-2.064-7.736-4.552-12.024-7.384l-8.832,13.344
		c4.616,3.056,9.008,5.752,13.04,8L422.731,129.014z"/>
	<path style="fill:#2A0E54;" d="M138.747,154.494c5.136,1.656,10.28,3.248,15.464,4.792l4.56-15.336
		c-5.056-1.504-10.096-3.064-15.104-4.68L138.747,154.494z"/>
	<path style="fill:#2A0E54;" d="M167.011,20.702l0.296-16c-3.152-0.056-6.28-0.088-9.36-0.088c-2.28,0.008-4.6,0.008-6.88,0.04
		l0.184,16c1.984-0.024,3.976-0.04,5.992-0.04C160.451,20.622,163.723,20.646,167.011,20.702z"/>
	<path style="fill:#2A0E54;" d="M412.899,237.19c4.68,2.456,9.096,5.04,13.128,7.68l8.784-13.376
		c-4.464-2.936-9.336-5.784-14.488-8.48L412.899,237.19z"/>
	<path style="fill:#2A0E54;" d="M375.491,115.918c4.424,3.376,8.744,6.624,12.968,9.696l9.408-12.936
		c-4.12-3-8.344-6.176-12.672-9.48L375.491,115.918z"/>
	<path style="fill:#2A0E54;" d="M24.539,36.502l13.768,8.16c2.248-3.808,5.032-6.984,8.52-9.704L36.971,22.35
		C31.963,26.278,27.771,31.038,24.539,36.502z"/>
	<path style="fill:#2A0E54;" d="M412.187,393.286c5.176-2.256,10.256-4.816,15.096-7.592l-7.984-13.864
		c-4.32,2.488-8.864,4.776-13.504,6.8L412.187,393.286z"/>
	<path style="fill:#2A0E54;" d="M379.987,403.302c5.448-1.032,10.96-2.416,16.416-4.12l-4.784-15.272
		c-4.856,1.52-9.776,2.76-14.616,3.672L379.987,403.302z"/>
	<path style="fill:#2A0E54;" d="M232.459,12.038c-5.248-1.224-10.712-2.312-16.216-3.208l-2.592,15.792
		c5.168,0.848,10.264,1.856,15.168,3L232.459,12.038z"/>
	<path style="fill:#2A0E54;" d="M199.947,6.638c-5.472-0.576-10.92-1.008-16.328-1.328l-0.92,15.976
		c5.16,0.296,10.344,0.704,15.56,1.264L199.947,6.638z"/>
	<path style="fill:#2A0E54;" d="M134.923,5.022c-5.528,0.176-10.896,0.392-16.064,0.608l0.656,15.984
		c5.12-0.208,10.44-0.424,15.92-0.6L134.923,5.022z"/>
	<polygon style="fill:#2A0E54;" points="314.091,402.67 330.075,403.886 331.267,387.934 315.339,386.718 	"/>
	<path style="fill:#2A0E54;" d="M16.627,64.886c0.008,2.608,0.224,5.2,0.64,7.712l15.784-2.608
		c-0.272-1.664-0.416-3.384-0.424-5.136c0-2.496,0.288-5.104,0.864-7.736l-15.64-3.392C17.035,57.478,16.627,61.222,16.627,64.886z"
		/>
	
		<rect x="353.37" y="86.821" transform="matrix(-0.6142 0.7892 -0.7892 -0.6142 658.1455 -132.1238)" style="fill:#2A0E54;" width="16.001" height="16.001"/>
	<path style="fill:#2A0E54;" d="M339.339,210.158l4.576-15.328c-5.136-1.536-10.28-3.04-15.448-4.52l-4.408,15.384
		C329.171,207.15,334.259,208.638,339.339,210.158z"/>
	<path style="fill:#2A0E54;" d="M448.427,241.686l-10.424,12.144c3.856,3.312,7.352,6.808,10.384,10.4l12.216-10.328
		C457.027,249.662,452.931,245.55,448.427,241.686z"/>
	<path style="fill:#2A0E54;" d="M298.907,59.054c4.384,2.832,8.736,5.768,13.056,8.776l9.144-13.128
		c-4.464-3.112-8.968-6.152-13.504-9.088L298.907,59.054z"/>
	<path style="fill:#2A0E54;" d="M243.659,31.678c4.912,1.552,9.76,3.312,14.4,5.224l6.096-14.792c-5.048-2.088-10.32-4-15.664-5.688
		L243.659,31.678z"/>
	<polygon style="fill:#2A0E54;" points="293.331,197.118 308.731,201.358 313.011,185.942 297.555,181.678 	"/>
	
		<rect x="264.271" y="175.13" transform="matrix(-0.2597 0.9657 -0.9657 -0.2597 519.8259 -32.2409)" style="fill:#2A0E54;" width="16" height="16"/>
	<path style="fill:#2A0E54;" d="M108.147,143.622c5.04,1.984,10.128,3.872,15.232,5.68l5.344-15.08
		c-4.936-1.752-9.848-3.584-14.736-5.496L108.147,143.622z"/>
	<path style="fill:#2A0E54;" d="M441.459,376.382c4.68-3.504,9.048-7.248,12.976-11.136l-11.264-11.368
		c-3.4,3.368-7.2,6.632-11.288,9.688L441.459,376.382z"/>
	<path style="fill:#2A0E54;" d="M102.907,6.238c-5.264,0.184-10.76,0.384-16.28,0.784l1.144,15.96
		c5.336-0.384,10.624-0.576,15.704-0.752L102.907,6.238z"/>
	<path style="fill:#2A0E54;" d="M384.523,224.822c4.808,1.76,9.64,3.664,14.448,5.744l6.36-14.68
		c-5.088-2.2-10.216-4.224-15.304-6.088L384.523,224.822z"/>
	<path style="fill:#2A0E54;" d="M282.099,399.966c5.328,0.488,10.664,0.952,16,1.4l1.344-15.944
		c-5.304-0.448-10.592-0.912-15.888-1.392L282.099,399.966z"/>
	<path style="fill:#2A0E54;" d="M58.691,28.462c4.112-1.56,8.696-2.768,14-3.704l-2.784-15.76
		c-6.288,1.112-11.824,2.584-16.888,4.504L58.691,28.462z"/>
	<path style="fill:#2A0E54;" d="M185.211,168.022l4.16-15.456c-5.12-1.376-10.24-2.776-15.344-4.208l-4.328,15.408
		C174.859,165.214,180.027,166.63,185.211,168.022z"/>
	<path style="fill:#2A0E54;" d="M99.499,122.71l-2.952-1.288c-3.608-1.576-7.52-3.28-11.584-5.144l-6.656,14.544
		c4.16,1.904,8.152,3.648,11.84,5.256l2.928,1.28L99.499,122.71z"/>
	<path style="fill:#2A0E54;" d="M470.595,268.27l-13.968,7.816c1.984,3.536,3.656,7.264,5.008,11.152
		c0.224,0.656,0.448,1.304,0.64,1.952l15.296-4.704c-0.272-0.872-0.552-1.752-0.848-2.568
		C475.083,277.214,473.019,272.622,470.595,268.27z"/>
	<path style="fill:#2A0E54;" d="M271.979,43.366c4.56,2.328,9.104,4.832,13.624,7.48l8.08-13.816
		c-4.792-2.8-9.608-5.456-14.44-7.912L271.979,43.366z"/>
	
		<rect x="233.37" y="166.762" transform="matrix(-0.264 0.9645 -0.9645 -0.264 473.6538 -11.9068)" style="fill:#2A0E54;" width="16" height="16"/>
	<path style="fill:#2A0E54;" d="M63.507,123.55l7.512-14.128c-4.904-2.616-9.168-5.152-13.056-7.752l-8.92,13.28
		C53.379,117.87,58.107,120.678,63.507,123.55z"/>
	
		<rect x="202.482" y="158.476" transform="matrix(-0.2569 0.9664 -0.9664 -0.2569 425.4435 5.8279)" style="fill:#2A0E54;" width="15.999" height="15.999"/>
</g>
<g>
</g>
<g>
</g>
<g>
</g>
<g>
</g>
<g>
</g>
<g>
</g>
<g>
</g>
<g>
</g>
<g>
</g>
<g>
</g>
<g>
</g>
<g>
</g>
<g>
</g>
<g>
</g>
<g>
</g>
</svg>
