<svg height="512" viewBox="0 0 60 48" width="512" xmlns="http://www.w3.org/2000/svg"><g id="Page-1" fill="none" fill-rule="evenodd"><g id="001---Landline-Phone" fill="rgb(0,0,0)" fill-rule="nonzero"><path id="Shape" d="m3.476 21.591c.48391484 1.4732768 2.01475444 2.3312247 3.524 1.975l4.605-1.066-9.143 14.48c-.30101406.4794473-.46110991 1.0338919-.462 1.6v6.42c0 1.6568542 1.34314575 3 3 3h50c1.6568542 0 3-1.3431458 3-3v-6.42c-.001919-.5662418-.1626785-1.1205849-.464-1.6l-9.136-14.48 4.6 1.066c.2246427.0518568.4544496.0780246.685.078 1.2786722.0041476 2.4165697-.8103051 2.825-2.022l3.332-9c.3963405-1.1895769.0110603-2.5001678-.966-3.286-4.371-3.489-13.939-9.336-28.876-9.336s-24.5 5.847-28.879 9.332c-.98442282.7946731-1.36615026 2.1205264-.955 3.317zm52.366 16.449c.1021528.1616719.1568941.3487625.158.54v6.42c0 .5522847-.4477153 1-1 1h-50c-.55228475 0-1-.4477153-1-1v-6.42c.00077258-.1897511.05482522-.3754704.156-.536l10.219-16.181 2.3-.53c1.363853-.3103495 2.3299058-1.5252907 2.325-2.924v-4.47c-.0006329-.3220109.1538375-.6246239.415-.813 3.1028263-2.1480335 6.8130357-3.24374584 10.585-3.126 3.7716803-.11795554 7.4816364.9777854 10.584 3.126.2615407.1881599.4164014.4908082.416.813v4.47c-.0049058 1.3987093.961147 2.6136505 2.325 2.924l2.3.53zm-53.475-27.14c3.357-2.679 12.77-8.9 27.633-8.9s24.276 6.221 27.633 8.9c.3160973.2523767.4451085.6727547.325 1.059l-3.332 9c-.1626826.4891833-.6705864.7745274-1.173.659l-9.678-2.234c-.4538972-.1048143-.7752987-.5091582-.775-.975v-4.47c-.0036066-.9560244-.4589363-1.8540769-1.228-2.422-3.4465583-2.40181965-7.5727523-3.63456043-11.772-3.517-4.1997167-.11762516-8.3263478 1.11549199-11.773 3.518-.7685291.5678189-1.2234711 1.4654672-1.227 2.421v4.47c-.000167.4654679-.3214673.8692698-.775.974l-9.678 2.234c-.51423016.116022-1.03081426-.1845915-1.184-.689l-3.311-8.943c-.13132774-.391972-.00581457-.8242951.315-1.085z"/><path id="Shape" d="m30 18c-6.0751322 0-11 4.9248678-11 11s4.9248678 11 11 11 11-4.9248678 11-11c-.0071635-6.0721626-4.9278374-10.9928365-11-11zm0 20c-4.9705627 0-9-4.0294373-9-9s4.0294373-9 9-9 9 4.0294373 9 9c-.006061 4.9680501-4.0319499 8.993939-9 9z"/><path id="Shape" d="m30 26c-1.6568542 0-3 1.3431458-3 3s1.3431458 3 3 3 3-1.3431458 3-3-1.3431458-3-3-3zm0 4c-.5522847 0-1-.4477153-1-1s.4477153-1 1-1 1 .4477153 1 1-.4477153 1-1 1z"/></g></g></svg>